<?xml version="1.0" encoding="UTF-8"?>
<svg xmlns="http://www.w3.org/2000/svg" xmlns:xlink="http://www.w3.org/1999/xlink" viewBox="0 0 573 765.93">
  <defs>
    <style>
      .cls-1 {
        fill: url(#linear-gradient);
      }

      .cls-2 {
        fill: #fff;
      }

      .cls-3 {
        fill: #283c8f;
      }

      .cls-4 {
        fill: url(#linear-gradient-8);
      }

      .cls-5 {
        fill: url(#linear-gradient-9);
      }

      .cls-6 {
        fill: url(#linear-gradient-3);
      }

      .cls-7 {
        fill: url(#linear-gradient-4);
      }

      .cls-8 {
        fill: url(#linear-gradient-2);
      }

      .cls-9 {
        fill: url(#linear-gradient-6);
      }

      .cls-10 {
        fill: url(#linear-gradient-7);
      }

      .cls-11 {
        fill: url(#linear-gradient-5);
      }

      .cls-12 {
        fill: url(#radial-gradient);
      }

      .cls-12, .cls-13, .cls-14, .cls-15, .cls-16, .cls-17, .cls-18, .cls-19, .cls-20, .cls-21, .cls-22, .cls-23, .cls-24 {
        mix-blend-mode: multiply;
      }

      .cls-25 {
        fill: url(#linear-gradient-14);
      }

      .cls-26 {
        fill: url(#linear-gradient-17);
      }

      .cls-27 {
        fill: url(#linear-gradient-13);
      }

      .cls-28 {
        fill: url(#linear-gradient-12);
      }

      .cls-29 {
        fill: url(#linear-gradient-10);
      }

      .cls-30 {
        fill: url(#linear-gradient-11);
      }

      .cls-31 {
        fill: url(#linear-gradient-27);
      }

      .cls-32 {
        fill: url(#linear-gradient-26);
      }

      .cls-33 {
        fill: url(#linear-gradient-35);
      }

      .cls-34 {
        fill: url(#linear-gradient-34);
      }

      .cls-35 {
        fill: url(#linear-gradient-25);
      }

      .cls-36 {
        fill: url(#linear-gradient-29);
      }

      .cls-37 {
        fill: url(#linear-gradient-33);
      }

      .cls-38 {
        fill: url(#linear-gradient-32);
      }

      .cls-39 {
        isolation: isolate;
      }

      .cls-13 {
        fill: url(#linear-gradient-16);
      }

      .cls-14 {
        fill: url(#linear-gradient-19);
      }

      .cls-15 {
        fill: url(#linear-gradient-15);
      }

      .cls-16 {
        fill: url(#linear-gradient-21);
      }

      .cls-17 {
        fill: url(#linear-gradient-23);
      }

      .cls-18 {
        fill: url(#linear-gradient-22);
      }

      .cls-19 {
        fill: url(#linear-gradient-20);
      }

      .cls-20 {
        fill: url(#linear-gradient-18);
      }

      .cls-21 {
        fill: url(#linear-gradient-31);
      }

      .cls-22 {
        fill: url(#linear-gradient-28);
      }

      .cls-23 {
        fill: url(#linear-gradient-30);
      }

      .cls-24 {
        fill: url(#linear-gradient-24);
      }
    </style>
    <linearGradient id="linear-gradient" x1="25.82" y1="732.31" x2="80.47" y2="732.31" gradientUnits="userSpaceOnUse">
      <stop offset="0" stop-color="#00adee"/>
      <stop offset=".91" stop-color="#00adee"/>
    </linearGradient>
    <linearGradient id="linear-gradient-2" x1="105.46" y1="727.9" x2="157.09" y2="727.9" xlink:href="#linear-gradient"/>
    <linearGradient id="linear-gradient-3" x1="185.11" y1="727.9" x2="228.6" y2="727.9" xlink:href="#linear-gradient"/>
    <linearGradient id="linear-gradient-4" x1="264.76" y1="727.9" x2="316.39" y2="727.9" xlink:href="#linear-gradient"/>
    <linearGradient id="linear-gradient-5" x1="344.41" y1="727.69" x2="387.13" y2="727.69" xlink:href="#linear-gradient"/>
    <linearGradient id="linear-gradient-6" x1="424.05" y1="727.9" x2="475.68" y2="727.9" xlink:href="#linear-gradient"/>
    <linearGradient id="linear-gradient-7" x1="503.7" y1="727.9" x2="547.18" y2="727.9" xlink:href="#linear-gradient"/>
    <linearGradient id="linear-gradient-8" x1="432.51" y1="-21.19" x2="140.49" y2="484.61" gradientUnits="userSpaceOnUse">
      <stop offset="0" stop-color="#00adee"/>
      <stop offset="1" stop-color="#2b388f"/>
    </linearGradient>
    <linearGradient id="linear-gradient-9" x1="346.26" y1="299.87" x2="347.24" y2="299.87" gradientUnits="userSpaceOnUse">
      <stop offset=".7" stop-color="#fff"/>
      <stop offset="1" stop-color="#28abe2"/>
    </linearGradient>
    <linearGradient id="linear-gradient-10" x1="345.28" y1="298.01" x2="346.26" y2="298.01" xlink:href="#linear-gradient-9"/>
    <linearGradient id="linear-gradient-11" x1="366.86" y1="257.97" x2="371.36" y2="257.97" xlink:href="#linear-gradient-9"/>
    <linearGradient id="linear-gradient-12" x1="362.08" y1="258.3" x2="376.37" y2="258.3" xlink:href="#linear-gradient-9"/>
    <linearGradient id="linear-gradient-13" x1="361.8" y1="249.71" x2="364.32" y2="249.71" xlink:href="#linear-gradient-9"/>
    <linearGradient id="linear-gradient-14" x1="361.35" y1="251.29" x2="368.43" y2="251.29" xlink:href="#linear-gradient-9"/>
    <linearGradient id="linear-gradient-15" x1="201.74" y1="232.93" x2="209.33" y2="232.93" gradientUnits="userSpaceOnUse">
      <stop offset="0" stop-color="#fff"/>
      <stop offset=".1" stop-color="#f7f8fb"/>
      <stop offset=".24" stop-color="#e4e6f1"/>
      <stop offset=".41" stop-color="#c4c9e0"/>
      <stop offset=".61" stop-color="#97a0c8"/>
      <stop offset=".82" stop-color="#5f6dab"/>
      <stop offset="1" stop-color="#283b8e"/>
    </linearGradient>
    <linearGradient id="linear-gradient-16" x1="201.71" y1="275.12" x2="209.07" y2="275.12" xlink:href="#linear-gradient-15"/>
    <linearGradient id="linear-gradient-17" x1="190.99" y1="252.37" x2="222.06" y2="252.37" xlink:href="#linear-gradient-9"/>
    <linearGradient id="linear-gradient-18" x1="194.87" y1="192.42" x2="205.31" y2="192.42" xlink:href="#linear-gradient-15"/>
    <linearGradient id="linear-gradient-19" x1="201.67" y1="232.35" x2="209.32" y2="232.35" xlink:href="#linear-gradient-15"/>
    <linearGradient id="linear-gradient-20" x1="192.74" y1="259.91" x2="198.58" y2="259.91" xlink:href="#linear-gradient-15"/>
    <linearGradient id="linear-gradient-21" x1="201.7" y1="275.05" x2="206.58" y2="275.05" xlink:href="#linear-gradient-15"/>
    <linearGradient id="linear-gradient-22" x1="189.74" y1="307.01" x2="195.84" y2="307.01" xlink:href="#linear-gradient-15"/>
    <linearGradient id="linear-gradient-23" x1="210.95" y1="253.62" x2="215.03" y2="253.62" xlink:href="#linear-gradient-15"/>
    <linearGradient id="linear-gradient-24" x1="206.54" y1="218.64" x2="216.82" y2="218.64" xlink:href="#linear-gradient-15"/>
    <linearGradient id="linear-gradient-25" x1="262.13" y1="93.15" x2="310.87" y2="93.15" gradientUnits="userSpaceOnUse">
      <stop offset="1" stop-color="#fff"/>
      <stop offset="1" stop-color="#28abe2"/>
    </linearGradient>
    <linearGradient id="linear-gradient-26" x1="268.27" y1="179.62" x2="304.73" y2="179.62" xlink:href="#linear-gradient-25"/>
    <linearGradient id="linear-gradient-27" x1="10961.45" y1="63.26" x2="10626.58" y2="500.78" gradientTransform="translate(11111.01) rotate(-180) scale(1 -1)" xlink:href="#linear-gradient-9"/>
    <radialGradient id="radial-gradient" cx="1552.44" cy="1867.6" fx="1552.44" fy="1867.6" r="178.1" gradientTransform="translate(1811.01 -1240.16) rotate(-180) scale(1 -.84)" gradientUnits="userSpaceOnUse">
      <stop offset=".21" stop-color="#2b388f"/>
      <stop offset=".32" stop-color="#515ba3"/>
      <stop offset=".67" stop-color="#cdd0e4"/>
      <stop offset=".82" stop-color="#fff"/>
    </radialGradient>
    <linearGradient id="linear-gradient-28" x1="10853.26" y1="300.07" x2="10906.42" y2="384.94" gradientTransform="translate(11111.01) rotate(-180) scale(1 -1)" gradientUnits="userSpaceOnUse">
      <stop offset=".13" stop-color="#fff"/>
      <stop offset=".19" stop-color="#f3f4f9"/>
      <stop offset=".32" stop-color="#d5d8e9"/>
      <stop offset=".48" stop-color="#a4aacf"/>
      <stop offset=".67" stop-color="#616bab"/>
      <stop offset=".82" stop-color="#2b388f"/>
    </linearGradient>
    <linearGradient id="linear-gradient-29" x1="248.21" y1="315.35" x2="324.79" y2="315.35" xlink:href="#linear-gradient-8"/>
    <linearGradient id="linear-gradient-30" x1="-1483.76" y1="7424.81" x2="-1676.19" y2="7269.99" gradientTransform="translate(7443.11 -2376.4) rotate(57.92)" gradientUnits="userSpaceOnUse">
      <stop offset="0" stop-color="#fff"/>
      <stop offset=".1" stop-color="#f7f8fb"/>
      <stop offset=".24" stop-color="#e4e6f1"/>
      <stop offset=".41" stop-color="#c4c9e0"/>
      <stop offset=".61" stop-color="#97a0c9"/>
      <stop offset=".82" stop-color="#5f6dab"/>
      <stop offset="1" stop-color="#283b8f"/>
    </linearGradient>
    <linearGradient id="linear-gradient-31" x1="155.85" y1="181.96" x2="245.42" y2="517.67" xlink:href="#linear-gradient-15"/>
    <linearGradient id="linear-gradient-32" x1="534.08" y1="525.62" x2="561" y2="525.62" xlink:href="#linear-gradient"/>
    <linearGradient id="linear-gradient-33" x1="504.35" y1="525.62" x2="531.26" y2="525.62" xlink:href="#linear-gradient"/>
    <linearGradient id="linear-gradient-34" x1="63.88" y1="559.59" x2="90.04" y2="559.59" xlink:href="#linear-gradient"/>
    <linearGradient id="linear-gradient-35" x1="31.69" y1="559.59" x2="57.84" y2="559.59" xlink:href="#linear-gradient"/>
  </defs>
  <g class="cls-39">
    <g id="Layer_1" data-name="Layer 1">
      <g>
        <g>
          <path class="cls-1" d="M76.77,765.93c-8.06-2.35-14.77-4.79-22.33-7.97-1.26-.5-2.6-.76-3.95-.84-12.76-.84-24.68-10.24-24.68-28.71,0-16.96,10.74-29.72,27.62-29.72s26.78,13.1,26.78,28.54c0,12.84-5.96,21.91-13.43,25.27v.34c4.37,1.26,9.23,2.27,13.68,3.19l-3.69,9.91Zm-10.07-38.2c0-10.33-4.87-18.89-13.6-18.89s-13.77,8.56-13.77,19.14c-.08,10.74,5.12,18.97,13.68,18.97s13.68-8.14,13.68-19.22Z"/>
          <path class="cls-8" d="M122.76,741.66l-4.03,14.52h-13.26l17.29-56.58h16.79l17.54,56.58h-13.77l-4.37-14.52h-16.2Zm14.35-9.57l-3.53-12c-1.01-3.36-2.01-7.56-2.85-10.91h-.17c-.84,3.36-1.68,7.64-2.6,10.91l-3.36,12h12.51Z"/>
          <path class="cls-6" d="M200.31,710.35h-15.19v-10.74h43.48v10.74h-15.45v45.83h-12.84v-45.83Z"/>
          <path class="cls-7" d="M282.05,741.66l-4.03,14.52h-13.26l17.29-56.58h16.79l17.54,56.58h-13.77l-4.37-14.52h-16.2Zm14.35-9.57l-3.53-12c-1.01-3.36-2.01-7.56-2.85-10.91h-.17c-.84,3.36-1.68,7.64-2.6,10.91l-3.36,12h12.51Z"/>
          <path class="cls-11" d="M344.41,700.36c4.11-.67,10.24-1.17,17.04-1.17,8.4,0,14.27,1.26,18.3,4.45,3.36,2.69,5.2,6.63,5.2,11.84,0,7.22-5.12,12.17-9.99,13.94v.25c3.94,1.59,6.13,5.37,7.55,10.58,1.76,6.38,3.53,13.77,4.62,15.95h-13.09c-.92-1.59-2.27-6.21-3.95-13.18-1.51-7.05-3.95-8.98-9.15-9.07h-3.86v22.25h-12.68v-55.82Zm12.68,24.34h5.04c6.38,0,10.16-3.19,10.16-8.14,0-5.2-3.53-7.81-9.4-7.89-3.11,0-4.87,.25-5.79,.42v15.61Z"/>
          <path class="cls-9" d="M441.35,741.66l-4.03,14.52h-13.26l17.29-56.58h16.79l17.54,56.58h-13.77l-4.37-14.52h-16.2Zm14.35-9.57l-3.53-12c-1.01-3.36-2.01-7.56-2.85-10.91h-.17c-.84,3.36-1.68,7.64-2.6,10.91l-3.36,12h12.51Z"/>
          <path class="cls-10" d="M518.89,710.35h-15.19v-10.74h43.48v10.74h-15.45v45.83h-12.84v-45.83Z"/>
        </g>
        <g>
          <rect class="cls-4" x="54.79" width="463.43" height="463.43" rx="66.98" ry="66.98"/>
          <g>
            <g>
              <path class="cls-5" d="M346.26,298.86c.33,.62,.66,1.29,.98,2.02-.33-.73-.65-1.4-.98-2.02Z"/>
              <path class="cls-29" d="M345.28,297.16c.33,.52,.66,1.09,.98,1.71-.33-.62-.66-1.18-.98-1.71Z"/>
              <path class="cls-30" d="M371.36,261.69v-5.19c0-1.24-1.02-2.25-2.26-2.25-1.24,0-2.25,1.01-2.25,2.25v5.19s4.5,0,4.5,0Z"/>
              <path class="cls-28" d="M365.05,250.81h0s0,11.47,0,11.47h-2.98s0,4.42,0,4.42l1.63,3.93v11.05s-.39-.16-.39-.16c2.15,2.39,8.94,10.13,10.31,13.86l-.02-24.92,2.75-4.71v-4.07s-2.81,0-2.81,0v-11.16s2.35-2.36,2.35-2.36v-5.6s-3.47,0-3.47,0v-6.64c0-1.51-1.23-2.73-2.74-2.73l-1.29-11.97c-.02,3.38,.04,12.56,.04,12.56,0,0-2.44,.41-2.65,2.17-.2,1.76,0,7.68,0,7.68h-3.39s0,4.55,0,4.55l2.64,2.64h0Zm4.06,3.44c1.24,0,2.25,1.01,2.25,2.25v5.19s-4.49,0-4.49,0v-5.19c0-1.24,1-2.25,2.24-2.25Z"/>
              <rect class="cls-27" x="361.28" y="249.71" width="3.56" height="0"/>
              <path class="cls-25" d="M361.35,266.6l1.32,4.2v9.99s.25,.26,.64,.71h0s0,0,0,0l.39,.16v-11.05s-1.64-3.93-1.64-3.93v-4.42s2.98,0,2.98,0v-11.47s0,0,0,0l-2.64-2.64h0s0-4.55,0-4.55h3.39s-.21-5.91,0-7.68c.21-1.76,2.65-2.17,2.65-2.17,0,0-.05-9.18-.04-12.56v-.05l-.03-.24v-.02s-.65,12.51-.65,12.51c0,0-2.63-.11-2.63,2.63,0,2.75,0,7.35,0,7.35h-3.3s0,5.05,0,5.05h0s2.52,2.52,2.52,2.52h0s0,10.72,0,10.72h-2.98s0,4.91,0,4.91Z"/>
            </g>
            <g>
              <path class="cls-15" d="M209.28,230h0c-.11-.7-.45-1.32-.93-1.8,0,0,0,0,0,0-.49-.49-1.15-.83-1.87-.94-.16-.03-.31-.04-.48-.04-1.83,0-3.31,1.49-3.31,3.32v8.08s-.94,0-.94,0c0,0,0,0,0,0h7.59s0-8.08,0-8.08c0-.18-.02-.36-.05-.53h0s.05-.07,.05-.07c-.06-.12-.24-1.6-1.19-2.7,.95,1.09,1.12,2.57,1.19,2.69l-.04,.07Z"/>
              <path class="cls-13" d="M208.07,270.06c-.4-.39-.88-.69-1.43-.85-.02,0-.04,0-.06-.02,0,0-.02,0-.03,0-.16-.04-.31-.07-.49-.09-.13-.02-.26-.03-.39-.03-1.87,0-3.39,1.52-3.39,3.39v8.72s-.58,0-.58,0h0s7.36,0,7.36,0v-8.72c0-.94-.38-1.78-1-2.4Z"/>
              <path class="cls-26" d="M195.82,297.81l.03,33.08c10.46-13.6,20.61-16.25,20.61-16.25v-16.44s5.61-8.52,5.61-8.52v-8.51s-7.79,0-7.79,0l-.02-26.83-3.3-.43,4.08-1.01,3.25-6.05v-8.23s-5.2,0-5.2,0v.83s0,0,0,0v-.83s0-8.68,0-8.68v-2.44s0,0,0,0v-6.47c-1.64,0-6.53,0-6.53,0l10.28-4.76v-7.65s-5.2,0-5.2,0v-10.69c-.01-2.64-1.79-4.86-4.21-5.53l-1.95-18.54-.13,1.3v.07s-.02,.05-.02,.05v.02s-.07,1.85-.07,1.85l-.58,15.79s-3.56,2.9-3.46,8.25c.11,5.33,0,8.43,0,8.43h-6.33s0,8.68,0,8.68l3.97,3.96-.16,8.59v7.78s-4.62,0-4.62,0v7.05s4.49,9.25,4.49,9.25l.02,26.25h-7.59s0,9.9,0,9.9l4.82,6.73Zm5.89-16.63h0s0,0,0,0v-8.64c0-2.02,1.65-3.74,3.67-3.61,.51,.04,.93,.16,1.2,.26,0,0-.02,0-.03,0,0,0,.02,0,.03,0,.02,0,.04,.02,.06,.02,.55,.16,1.04,.46,1.43,.85,.62,.61,.99,1.46,.99,2.4v8.72s-7.36,0-7.36,0Zm.02-50c.15-1.53,.29-5.1,3.7-5.11,1.28,0,2.13,.52,2.7,1.17,.95,1.09,1.13,2.58,1.19,2.7l-.05,.06h0c.03,.18,.05,.36,.05,.54v8.08s-7.59,0-7.59,0c0,0,0,0,0,0h0s-.15-5.91,0-7.45Z"/>
              <path class="cls-20" d="M205.31,175.29v-.06s-1.66,17.38-1.66,17.38c-2.06,.86-3.51,2.86-3.56,5.23-.05,3.54-.1,7.96-.05,10.79h-5.17s0,1,0,1h6.33s.1-3.1,0-8.43c-.1-5.34,3.46-8.25,3.46-8.25l.59-15.78,.07-1.85v-.02Z"/>
              <path class="cls-14" d="M201.74,238.62h.95s0-8.08,0-8.08c0-1.83,1.48-3.32,3.31-3.32,.17,0,.32,0,.48,.04,.73,.1,1.39,.45,1.87,.94,0,0,0,0,0,0,.48,.48,.82,1.1,.93,1.8h0s.04-.07,.04-.07c-.06-.12-.24-1.6-1.19-2.69-.57-.66-1.42-1.17-2.7-1.17-3.42,0-3.56,3.57-3.7,5.11-.15,1.53,0,7.45,0,7.45h0Z"/>
              <polygon class="cls-19" points="196.79 254.64 196.81 281.18 196.82 281.18 198.58 281.18 198.56 254.93 194.08 245.68 194.07 238.64 194.07 238.63 192.74 238.63 192.74 245.55 196.79 254.64"/>
              <path class="cls-16" d="M202.28,272.46c0-1.87,1.51-3.39,3.39-3.39,.14,0,.27,0,.39,.03,.17,.02,.33,.05,.49,.09,0,0,.02,0,.03,0-.28-.1-.69-.22-1.2-.26-2.02-.13-3.68,1.59-3.68,3.61v8.64h.59s0-8.72,0-8.72Z"/>
              <path class="cls-18" d="M194.36,298.21l.03,34.62s0,0,0,0c.48-.67,.96-1.32,1.44-1.94l-.03-33.08-4.82-6.73v-9.89s0,0,0,0h-1.25s0,9.82,0,9.82l4.61,7.21Z"/>
              <polygon class="cls-17" points="214.25 254.34 215.03 252.89 210.95 253.91 214.25 254.34"/>
              <path class="cls-24" d="M213.06,221.02l3.75-4.76-10.28,4.76s4.89,0,6.53,0Z"/>
            </g>
          </g>
          <g>
            <path class="cls-35" d="M286.7,129.42c-10.89,0-20.32-7.1-23.42-17.52-.62-2.07-1.16-4.13-1.15-6.3,.02-3.46,1.03-6.69,2.45-9.79,2.45-5.33,5.35-10.41,8.27-15.49,4.36-7.57,8.72-15.13,13.09-22.7,.58-1,.58-1,1.16,0,5.47,9.51,10.98,19.01,16.4,28.56,1.99,3.5,3.83,7.08,5.47,10.76,2.68,6.01,2.45,11.94-.26,17.84-3.57,7.77-9.56,12.53-17.94,14.25-1.39,.28-2.8,.43-4.08,.39Z"/>
            <path class="cls-32" d="M286.65,206.75c-8.14,0-15.2-5.31-17.52-13.1-.46-1.54-.87-3.09-.86-4.72,.02-2.59,.77-5,1.84-7.32,1.83-3.98,4-7.79,6.19-11.58,3.26-5.66,6.53-11.32,9.79-16.98,.43-.75,.44-.75,.87,0,4.09,7.12,8.21,14.22,12.27,21.36,1.49,2.62,2.86,5.29,4.09,8.05,2,4.49,1.83,8.93-.19,13.35-2.67,5.81-7.15,9.37-13.42,10.66-1.04,.21-2.09,.32-3.05,.29Z"/>
            <g>
              <path class="cls-31" d="M315.61,80.38h0c11.84,11.84,11.84,31.04,0,42.89l-3.49,3.49c52.91,11.74,92.6,59.04,92.6,115.42,0,8.83-.97,17.42-2.83,25.69-4.35,19.6-13.59,37.38-26.37,52,.02-.8,.03-1.59,.03-2.39,0-49.1-39.95-89.06-89.07-89.06-29.54,0-55.75,14.45-71.96,36.63-10.76,14.72-17.11,32.85-17.11,52.43,0,.8,0,1.59,.03,2.39-16.08-18.4-26.56-41.8-28.76-67.53-.29-3.35-.44-6.74-.44-10.16,0-33.49,14-63.77,36.45-85.3,15.35-14.73,34.66-25.36,56.15-30.13l-3.48-3.48c-11.84-11.84-11.84-31.04,0-42.89h0c-31.49,5.65-59.89,20.3-82.45,41.18-32.46,30.05-52.82,73-52.82,120.62,0,73.58,48.6,136.03,115.39,156.93,13.88,4.34,28.54,6.89,43.72,7.37,1.76,.06,3.51,.08,5.28,.08,.75,0,1.51,0,2.26-.02,.26,0,.52-.01,.78-.01,53.74-.98,101.25-27.88,130.55-68.68,13.22-18.4,22.73-39.63,27.43-62.59,2.19-10.68,3.35-21.74,3.35-33.07,0-80.71-58.47-148.02-135.27-161.8Zm-27.97,280.01c-.38,.01-.76,.01-1.14,.01s-.76,0-1.14-.01c-23.13-.61-41.78-19.63-41.78-42.91,0-10.44,3.75-20.02,9.97-27.47,7.88-9.43,19.73-15.44,32.95-15.44,23.66,0,42.92,19.24,42.92,42.91s-18.65,42.3-41.78,42.91Z"/>
              <path class="cls-12" d="M288.76,406.53c.26,0,.52-.01,.78-.01,53.74-.98,101.26-27.88,130.55-68.68,13.22-18.4,22.73-39.63,27.44-62.59-14.99-7.72-39.14-5.03-45.63-7.37-4.35,19.6-13.59,37.38-26.36,52-1.25,47.27-39.49,85.47-86.78,86.66Z"/>
              <path class="cls-22" d="M197.43,317.48c0,.8,.01,1.59,.03,2.39,21.46,24.56,52.88,40.2,87.89,40.52-23.13-.61-41.78-19.63-41.78-42.91,0-10.44,3.75-20.02,9.97-27.47l-39.01-24.96c-10.75,14.72-17.11,32.85-17.11,52.43Z"/>
            </g>
            <circle class="cls-2" cx="285.36" cy="317.49" r="53.63"/>
            <path class="cls-36" d="M286.82,372.33c-17.11,0-31.92-11.16-36.8-27.52-.97-3.24-1.83-6.48-1.8-9.9,.04-5.44,1.61-10.5,3.86-15.38,3.85-8.37,8.4-16.36,12.99-24.33,6.85-11.89,13.71-23.77,20.56-35.66,.91-1.57,.92-1.57,1.83,0,8.6,14.95,17.25,29.87,25.77,44.86,3.12,5.49,6.01,11.12,8.59,16.9,4.21,9.44,3.85,18.77-.4,28.03-5.6,12.21-15.01,19.69-28.19,22.38-2.18,.44-4.39,.68-6.41,.61Z"/>
          </g>
          <path class="cls-23" d="M386.91,371.84c-8.24-11.14-19.3-26.15-27.27-37.24,13.9-11,25.41-25.17,33.28-41.72,.39-.81,.76-1.63,1.13-2.45,3.12-6.93,5.6-14.27,7.37-21.97,2.31-10.08,3.26-20.16,2.95-30.05-1.59-51.88-37.53-98.39-90.09-111.23,44.28,10.63,80.32,38.3,102.1,74.67,15.94,26.62,20.68,55.88,21.55,64.68,2.32,23.31-2.95,46.78-15.18,66.76-.91,1.48-1.75,2.78-2.49,3.82-7.36,10.35-15.85,19.73-25.26,28.03-2.63,2.32-5.32,4.55-8.09,6.69Z"/>
          <path class="cls-21" d="M165.07,266.58c0-11.81,1.25-23.33,3.63-34.44,2.49-29.48,15.84-55.91,36.03-75.27-8.2-10.62-20.94-24.34-29.79-35.32-32.46,30.05-52.82,73-52.82,120.62,0,70.01,43.99,129.94,105.79,153.59-38.24-30.12-62.84-76.84-62.84-129.18Z"/>
        </g>
        <path class="cls-38" d="M547.65,545.64c-6.01,0-11.22-3.92-12.93-9.67-.34-1.14-.64-2.28-.63-3.48,.01-1.91,.57-3.69,1.36-5.41,1.35-2.94,2.95-5.75,4.57-8.55,2.41-4.18,4.82-8.35,7.23-12.53,.32-.55,.32-.55,.64,0,3.02,5.25,6.06,10.5,9.06,15.77,1.1,1.93,2.11,3.91,3.02,5.94,1.48,3.32,1.35,6.59-.14,9.85-1.97,4.29-5.28,6.92-9.91,7.87-.76,.16-1.54,.24-2.25,.21Z"/>
        <path class="cls-37" d="M517.92,545.64c-6.01,0-11.22-3.92-12.93-9.67-.34-1.14-.64-2.28-.63-3.48,.01-1.91,.57-3.69,1.36-5.41,1.35-2.94,2.95-5.75,4.57-8.55,2.41-4.18,4.82-8.35,7.23-12.53,.32-.55,.32-.55,.64,0,3.02,5.25,6.06,10.5,9.06,15.77,1.1,1.93,2.11,3.91,3.02,5.94,1.48,3.32,1.35,6.59-.14,9.85-1.97,4.29-5.28,6.92-9.91,7.87-.76,.16-1.54,.24-2.25,.21Z"/>
        <g>
          <path class="cls-34" d="M77.07,579.05c-5.84,0-10.9-3.81-12.57-9.4-.33-1.11-.62-2.21-.62-3.38,.01-1.86,.55-3.59,1.32-5.25,1.31-2.86,2.87-5.59,4.44-8.31,2.34-4.06,4.68-8.12,7.02-12.18,.31-.54,.31-.54,.62,0,2.94,5.11,5.89,10.2,8.8,15.32,1.07,1.88,2.05,3.8,2.93,5.77,1.44,3.22,1.32,6.41-.14,9.57-1.91,4.17-5.13,6.73-9.63,7.65-.74,.15-1.5,.23-2.19,.21Z"/>
          <path class="cls-33" d="M44.87,579.05c-5.84,0-10.9-3.81-12.57-9.4-.33-1.11-.62-2.21-.62-3.38,.01-1.86,.55-3.59,1.32-5.25,1.31-2.86,2.87-5.59,4.44-8.31,2.34-4.06,4.68-8.12,7.02-12.18,.31-.54,.31-.54,.62,0,2.94,5.11,5.89,10.2,8.8,15.32,1.07,1.88,2.05,3.8,2.93,5.77,1.44,3.22,1.32,6.41-.14,9.57-1.91,4.17-5.13,6.73-9.63,7.65-.74,.15-1.5,.23-2.19,.21Z"/>
        </g>
        <g>
          <path class="cls-3" d="M99.95,604.95c0,11.99-5.34,17.98-16,17.98H46.18c-8.8,0-15.34-1.65-19.63-4.95-4.29-3.3-6.43-8.41-6.43-15.34,0-3.63,.71-9.73,2.14-18.31l-18.8-2.31c-2.31,10.12-3.46,19.19-3.46,27.21,0,24.52,13.63,36.78,40.9,36.78h43.54c24.85-.11,37.28-11.32,37.28-33.65v-49.32l-21.94,2.64,.17,39.26Z"/>
          <polygon class="cls-3" points="142.51 646.02 164.44 646.02 164.44 525.62 142.51 528.42 142.51 646.02"/>
          <path class="cls-3" d="M561.7,573.86c-7.53-7.42-16.96-11.13-28.29-11.13s-20.84,3.63-28.21,10.89c-7.37,7.26-11.05,16.66-11.05,28.2,0,6.27,1.87,13.31,5.61,21.11h-11.22c-6.93,0-13.25-1.92-18.97-5.77,.22-2.2,.33-3.79,.33-4.78l.16-14.68c.11-11.11-3.3-20.15-10.23-27.13-6.93-6.98-15.89-10.47-26.89-10.47-8.25,0-16.85,1.4-25.81,4.21-8.96,2.8-21.42,7.83-37.36,15.09v-53.77l-21.77,2.81v94.51h-46.02s0,0,0,0,0,0,0,0h-64s-.05,0-.08,.01c-.03,0-.05-.01-.08-.01-4.62,0-8.55-1.07-11.79-3.22-3.24-2.14-5.2-5.47-5.86-9.98v-46.68l-21.77,2.64,.16,75.38c0,14.95-8.41,22.43-25.23,22.43l1.65,17.98c15.39,0,26.77-3.11,34.14-9.32,7.37-6.21,11.05-16.3,11.05-30.27v-3.13c4.29,4.84,10.17,7.26,17.65,7.26,.03,0,.05-.01,.08-.01,.03,0,.05,.01,.08,.01h64s0,0,0,0,0,0,0,0h129.64c13.96,0,24.24-3.74,30.84-11.22,7.26,7.48,15.94,11.22,26.06,11.22h37.44c14.51,0,25.98-3.98,34.39-11.96,8.41-7.97,12.62-18.72,12.62-32.25,0-11.22-3.77-20.53-11.3-27.96Zm-113.56,33.4c0,4.95-1.43,8.8-4.29,11.55-2.86,2.75-6.87,4.12-12.04,4.12h-62.02v-25.57c18.58-6.49,31.2-10.58,37.85-12.29,6.65-1.7,13.44-2.56,20.37-2.56,5.94,0,10.77,1.59,14.51,4.78,3.74,3.19,5.61,7.42,5.61,12.7v7.26Zm96.32,10.06c-4.4,3.74-10.39,5.61-17.98,5.61h-6.27c-3.96-7.26-5.94-14.02-5.94-20.29,0-5.17,1.81-9.62,5.44-13.36,3.63-3.74,8.03-5.61,13.2-5.61s9.48,1.73,12.95,5.2c3.46,3.46,5.2,7.84,5.2,13.11,0,6.49-2.2,11.6-6.6,15.34Z"/>
        </g>
      </g>
    </g>
  </g>
</svg>